<mxfile cover="8276;/9j/4AAQSkZJRgABAQAAAQABAAD/4gHYSUNDX1BST0ZJTEUAAQEAAAHIAAAAAAQwAABtbnRyUkdCIFhZWiAH4AABAAEAAAAAAABhY3NwAAAAAAAAAAAAAAAAAAAAAAAAAAAAAAAAAAAAAQAA9tYAAQAAAADTLQAAAAAAAAAAAAAAAAAAAAAAAAAAAAAAAAAAAAAAAAAAAAAAAAAAAAAAAAAAAAAAAAAAAAlkZXNjAAAA8AAAACRyWFlaAAABFAAAABRnWFlaAAABKAAAABRiWFlaAAABPAAAABR3dHB0AAABUAAAABRyVFJDAAABZAAAAChnVFJDAAABZAAAAChiVFJDAAABZAAAAChjcHJ0AAABjAAAADxtbHVjAAAAAAAAAAEAAAAMZW5VUwAAAAgAAAAcAHMAUgBHAEJYWVogAAAAAAAAb6IAADj1AAADkFhZWiAAAAAAAABimQAAt4UAABjaWFlaIAAAAAAAACSgAAAPhAAAts9YWVogAAAAAAAA9tYAAQAAAADTLXBhcmEAAAAAAAQAAAACZmYAAPKnAAANWQAAE9AAAApbAAAAAAAAAABtbHVjAAAAAAAAAAEAAAAMZW5VUwAAACAAAAAcAEcAbwBvAGcAbABlACAASQBuAGMALgAgADIAMAAxADb/2wBDAAMCAgICAgMCAgIDAwMDBAYEBAQEBAgGBgUGCQgKCgkICQkKDA8MCgsOCwkJDRENDg8QEBEQCgwSExIQEw8QEBD/2wBDAQMDAwQDBAgEBAgQCwkLEBAQEBAQEBAQEBAQEBAQEBAQEBAQEBAQEBAQEBAQEBAQEBAQEBAQEBAQEBAQEBAQEBD/wAARCAB3ASsDASIAAhEBAxEB/8QAHAABAAIDAQEBAAAAAAAAAAAAAAUGAwQHAgEJ/8QAUhAAAQMDAgIEBwoKBwUJAAAAAQIDBAAFEQYhEjEHE0FRFBUWIjJhkyNCVFVWcYGh0tMXNENXYpGSlJXUM1KClrGy0SQlNWSiNnJzdISFo7PB/8QAFAEBAAAAAAAAAAAAAAAAAAAAAP/EABQRAQAAAAAAAAAAAAAAAAAAAAD/2gAMAwEAAhEDEQA/AP1TpSlApSlApSlApSlApSlApSlAqH1ey5I0tdmGmVvKXDdT1aElSljhOUhI3VkZGBueVTFKDll6Y0oiStenrV0erj9UeFEuKkL6zf8Aqpxjl21pJRaGmkuyrZ0XpCSlbqjH4QEZyoehtgdpzy9e3YKr/SDd4th0Lf7zNQ8qPCt0h5wMtlxfCEHOEjc/MKChTY1oEeKq22/o0MjhxKQ/Ew2FZ9JBSjPLsP6+2vkdjTz9ru8a9WHRBkGGoQjaIgW448Uq81IKeIqzwgYGSeXq60w8mQw2+lKkpcQFgKGCARncdhrJQY44cTHaS7njCEhWTnfG9ZKUoFKUoFKUoFKUoFKUoFKUoFKUoFKUoFKUoFKUoFKUoFKUoFKUoFKUoFKUoFKUoFKVq3K5RbVG8JlKVgqCG0IHEt1Z5IQkbqUe7/8AKD3NmxLdFcmTX0sstjKlK+oDvJ5ADcmoZNskajeRNvzBbgoPHHtyx6R7HHxyJ7Qjknmcnlkg2qZPmIvWoAOtbOYkIK4m4v6RPJbnerkOSe0mcoK8lh/SRKo4cfsmcqaGVOQfWjtU1+jzT2ZGwnmXmpDSH2HUONuJCkLQoFKgeRBHMV7qvuwJmnpC59laW/AdUVybejmgncuMDv7SjkeYwfSCwUrBDmRbhGbmQn0vMujKFp5H/Q9hHMGs9ApSlApSlApSlApSlApSlApSlApSlApSlApSlApSlApSlApSlApSlApSlApSlAqtar07KuLqLrAcdW800WFx0u8BW0VAq6pf5NzbHF74eacbEWWlBSoWkot5hF6DrnVjaSpSVDw/DjSwTlCgpBKVDIGD3Dv33Iug0R2gy7q3UkpIbUj3ecDnKSnOyRuM5B7wDUjdLTKEg3ixLQ1cAkBxtZw1LSOSHMcj3LG49Y2rZtN3YuzKyltbEhk8EiM6MOMr7iO7uI2I3BoIUaEUGy35aanO54VGanKcnOB5m+PXnbbeou9aSRb0oUdcaxdkv5bYisXBAW+rtAHBtjtVtwjtFWm8Xk28ohQo/hdxkDLEcKwMcuNaveIHafoAJ2r7abOqEtc+fI8LuL6QHnynASnn1bY96gHs5nmSTQa2lbDJssd56dKLsuYULeSlRKElKeEYz6SiPSWd1Hc42AnKUoFKUoFKUoFKUoFKUoFKUoFKUoFKUoFKUoFKUoFKUoFKUoFKUoFKVrzZ0a3sGRJWQnISkAEqWo8kpA3JPcKDYrUmXa3W9Qbly20OK9FsHicV8yRlR+gVqBi7XXz5Tq7fGVyYZUOuUP01j0fmTv8ApVuwrbAt6SmFFbaKvSUB5yz3qUd1H1k0Gp42mv8A4hY5Sx2LkFLCf1HK/wDppw6le5vW2IO5KFvn9ZKP8KlKUEZ4sujn9NqKSn1MsNJH/UlR+uniPi/pbxc3P/UcH+UCpOlBGeT8I+nKuav/AHGQP8Fioq+2CPa4crUdokyY9zgxXFtvOyHX0rQkFRbWlaiFJJHqIO4Iq0VG6kbcd07dGmkKWtcJ9KUpGSols4AA5mg8RdOW1uOtuew3cHn1hyQ9JbStTqwMA4IwAASAkbAHbtr15NWJP9Fbm2f/AASWv8pFPKO1/wDOfuL/ANit2HLjz4zcyKsradTxIUUlJI+Y7j6aDS8Qso/Frlcmfmlrc+pwqp4vvLX4vqBTnd4TFQv/ACcFSdKCM6zUjPpRrfKHaUOrZP0AhQ+uvnjl9rabY7gyP6zaEvJ+jqyVfVUpSgj2dQWV5wMi4stunk28eqWf7KsH6q3wQRkHINeXmGZCC0+yhxB5pWkKB+g1HnTlrQeKG05CV/yjqmh+yk8J+kUEnSovwK9xvxS8pkJHvJjAJ+YKb4cfOQaeMrpG/HrI4pI5uRHQ6P2Twq/UDQSlK0I99tMlwMJmJbeP5F4Fpz9heD9Vb9ApSlApSlApSlApSlApSlApSlApSlApXKok7TUmHdZN314+zdm7pdGxFXqVyKEhuY8hpHAHAEDgSgDYbYNQkbVVvef6lxyY0EpSVqV0gjAJKth7rhRwATg7cXfQdrlSo0GM7MmSG2GGUlbjjiglKEjmSTyFR9qZcnrTfJqfPdB8FbP5Fo8jj+uobk/R2b8eu8vTV7tMm0X7hnwZrHVyYz2v0qbcQoEKbUFO4UOzfY5rYbvtqix0x4ynEIZHVtNt9IaUoCE7JA90GBgDAxyI5cgHbqVxO36kgSFMeHvSYgcWA6fwhpcLScjKtnd+/A7qt+nJVlGuGIWndVv3aMq1SXX0KvC5qUrDzAQSFLUEnBXjkdzQX2lKUClKUClQGv5cmBoTUk6FIcYkR7RMdZdbVwqbWllZSoEciCAc1CX7S0y3NBdkj6muyuBR4E6mfZPF70ZW4Bg9+9BeqidKvMyLDFejuodbVx4WhQUD56u0VQ2rRqx0lLukdTMgI4sq1ktQUdspGHPn3PYB81a1o0dM07a0WjTugb/AiRXSluJF1UplpKVZWpSQFhPpK3xzJPbQdbpXNrNZb5PlNNXPT2qrcyokOuq1W651Z3xsHMq7Nx3nu3sOim3YszU1sVOmymYN3Q1HMuSt9aEKgxXCnjWSccbizjPbQWilKUClKUClKh0yb3MnT2Yb0FpqG+llPWsrWpWWm1kkhYHNeOXZQSciLGltlmXHaebPNDiAoH6DVamXDRdnkuQ0azh2eS0cLYNybSEHGQC04SE7Y5AbVL9VqX4dbP3Vz7yqjYb3YbXcdURtS3uxR7gq7FaEyHUM5T4KwEkJWoq4cgj6DQSHl9aInpav0xcEDtRcmmHP1FRST9KaxPdNHRlCeixbrrC2wHpshMVhL8lHCt1QJSnjSSjfhPvsZwO0ZiF6tl8R6vU3RkU8YxxTTkJwM++554h9APbgZTqplyIhTupujpMlCknhE1KmzscnJwQc4xj170Fr8vND/LOxfxFn7VPLzQ/yzsX8RZ+1VNkavmNR2lx9RdGrzqWlF5HhuONe+AjKgAOXM19t+rphktm6aj6MxHLrfGGJ56wN8I6zGTji4s47Mc6C+W3UunLy+qLZ9QW2c8lBcU3GltuqCQQCohJJxkgZ9YqSqhputvu+v4A0hebPI6qzzOuLKkvpTl+NjIbUME47e6rT1Wpfh1s/dXPvKCTpUZ1Wpfh1s/dXPvKyWWXLmRFrm9V1zch5klpJSk8CykHBJI2HfQb9KUoFK509rDVFvslsvl61HpuAzc46H0cdrkqCOJAVgkP9nEBmteH0izp+PBNbaZXkcW9lmJGNidy8BnBzjnigvkq8CPNVAZt0yU620h5fUhGEpWVBO6lDfKFcq8+OZXyeuf6mfvK5hE1fMb1HO1AOlCzOiZEYjGG5ZZAjsBpbhDifPCwpRcVniURhOwGDUo50jzWmvCHdbaZSzwcYd8TSylQxk4w9z9XftzoLqqYhaipWk5pUTkktsZJ/br54U38kZnsmPt1WTqvVXifyhh3vT1whtyWGHEtW2Q0o9Y42kgFT2xw4DuDXQKCgdI0eRd9ITLdA0q82+67G4FPJZSgYkNqPEQokDAPIH5qsvg93+IbL+8q+5rPqP/g73/fa/wDsTWj0ivOx+j7U77Dq23W7NNWhaFEKSoMLIII5EGgz+D3f4hsv7yr7mvbaL4yriZstoQojGUy1g49jVLvlp0R4IPJu7WEyeLfw2+vBvGP0HCeeNu3vHOoNduR1T2JejOsQtHVY1DK4XE++Jyvbnn+zjfOQHTbVqJubfJ+nJTtvRcLeyxIdYjy+tWlDpWElSSlKk+h3b5qarjTOnrWmc9MXctENrejlsrReJRWpSeLqwpXWAlIKj82TjnmvHilXA2DdNCcX5T/f0zHLs9079vr9VB2ilcivsHR8TRV1km7WsXhqK8pjwG8urHEAeApSpwknltg7103UDz8eyTXozymnUsq4FpxlJ7xnbNBtyY0abGdhzI7b8d9CmnWnUBSHEKGFJUk7EEEgg1Afg16OfkBpv+FMfZqR8SL+O7n7ZP2aeJF/Hdz9sn7NBHfg16OfkBpv+FMfZqp9FXR9oGXoK2SJeiLA86sv8S3LYypRw+4BklOeQFX3xIv47uftk/ZqF0dpdi3aciQ4d2ubbLfWcKevBxlxRPNPeTQbP4Nejn5Aab/hTH2alrTY7LYIyodis8K2x1rLqmokdDKFLIAKilIAJwAM+oVi8SL+O7n7ZP2aeJF/Hdz9sn7NBJ0qCmQ5NuchvtXecvilttrQ4tKkqSo4II4anaBSlKCNuWpdOWZ9MW8agtsF5SA4luTLbaUUkkBQCiDjIIz6jVX090maDmXbUbCNU25oxbihsrfkJaQ5/szPnNqUQHE9nEnIyCM16u02Padb3WVPt1yW3MssBmLIj2aTObDiHphWD1LagCOsbJBIyCKgTMm+CIZRqm/peCypb3kDLJUMbAJLOAOeeedsYxuF58vND/LOxfxFn7VYVav6O1qKlao04VE5JM1jJP7VUwXC6eDqQrU11L6nCrrPwezglKCNkhPBzB3ySfmr7NuiTpO922Wu+3iZLtzzEbGjJsY9aW1gbhnG5KRvjGOdB01MKAtIUmJHKSMghtOCKjdSwYQ0/cCIbH4uv8mO6pSElSIbCVJIUGkggjcHArS1N/2fuP8A5Zf+FBueAQfgbHsxTwCD8DY9mKz0oMTcaMyriZjtoURjKUAHFRb+tNHRX3IsrVlmZeZWW3G3J7SVIUDgpIKsgg7EVM1za33OLb7Nc7O/CvUG5G7XRxElGmJktKUuTnnELSUslCwUKSRgkYNBbPLzQ/yzsX8RZ+1UHpHpK0LPhTnE6nt8fqrpMaxKkIYUvDyvPSFkFSDzChsRuKr7cy6pU31urr4tKQjiA6PZQKyMcW/U7BW/LlnY9+abPlyAwY2pb9GUhBDvDoKWoOKJJ4gCz5uBgY35evYLt5eaH+Wdi/iLP2q22NS6clNJfjX+2vNqzwrblNqScHGxB76pFkvIgyi7ebpe7myeL3LyFms4zywpLJO311CC23Oe/Kmw7Jc0sPzJLjQcgPMq4C8spPAtIUnbGxAoL1C0TdLdDYt8PpG1I3HjNJZaR1NuPChIASMmLk7Ac69taPu7IUGekXULYUorUExraMqJyScROZqz0oK35K3385WpPYW7+Vp5K3385WpPYW7+VqyUoKTqHTwhWpczU3SFqR+3MOsOuteCw1dYpLqChPCzF6w5WEjCd6kvL+xfANSf3auP3FZ9bQJ1y04/FtsRUmR10Z1LSVJSVhD7a1AFRCc8KTzIqBvitQ3xbTnklqmA4yFALg3SE0VAgjf3U5wTn5wOY2oMes+kFhGnJKrHpjU11mhbPVxE2GeyVjrUcR41shIwnKvowMnAqZc13p91CmnbbqJaFgpUlWmbiQQeYI6iqw/Zr++oOeJdctvZz1qL1CCiOHABHWYxsDy3PPOTnw9YdQuthPi3X6HEuKcQ6m/Q+NJIAIGXMFO3IgjcnnQTjmp9AMJDkmwT47fElJcf0vNbbSSQBxKUwEpGSNycVZvEVk+JoP7uj/SqRNj6qk6Ye001pW/vqeWkiVcLhDdUkBxKvOKXckADuJrotBo+IrJ8TQf3dH+lVefEnytVS7DYbfpyMzCt8SWtcu2qeUtTzkhOBwrQAAGB3+lV2qv3PSj029O3236ou1pkPxWYjyYiIqkOIaW6pBIeZcIILy+RHZ3UFGnali2yWuBcrzo2NJQpSVNL07I4hwnBOzp2z21h1Vqu53qxzrM70g2u1pfZOZkWxSwtsJIKuEqWpPFyBBGd++r35K3385WpPYW7+Vp5K3385WpPYW7+VoKw10gXJxjrm9a6bcbSotl0WWXhSgE5x7r53pD0cjn3HGSza7umoJqbdaNZ6ZkSFuONJQLNLTlSM8QyXgNsGrH5K3385WpPYW7+VqPucZNlW23eema6QFOglCZKrU0VAcyOKMM0Eppm6XyVcbvar65BddtrjKUuRGFtJUFthe4UtRyM99bum/8Agsf+3/nNV2w3nQ9idnS3ukyFc5NwWhx56XcIYV5iAlIAZShIGB3ZrDobpN0JdtLQrg3qaBFS71nuM19Ed5OHFDzm1kKTnGRkbgg9tBMa31BO09CgvQX4jCpU1Mdx6Uwt1DaOrcWVcKFJJPmDt7TtVOV0qLQG1L13ppKXeLhKrHNAGO89btzGM88jFWi7XDSGsFQrfA13EYmsSkyYqrfNjOPdYEqTgJWFpVspW3Ca2PJW+/nK1J7C3fytBSbvqTUV8i2+VbukOwxmo1waecLVgkr65KAVKbIW4SAQc5GCMc+w51dKLiXFNHXul+NCygjxLM9IEDb3XfdSR85xzq3+St9/OVqT2Fu/laeSt9/OVqT2Fu/laCor6UHmnSy7rnTSFAZPFY5oA3xjPW4zk8udWvQeppWp4lyelSoUoQp3gzT8RhbLbqCwy5xcK1KIOXSOe+BX13SF4fbUy90jahcbWClSVRraQoHmCDE3rf07p1GnmpifGky4PT5PhT78oNBZX1aGwAGkISAEtp5J76CXpSlArQvV8t2n4aZ1zW8lpbqGUhmO4+ta1HCUpQ2lSiSe4Vv1X9aQ7lKgwXbXb3JrsO4xpSmW3EIUpCFZOCtSU5+mgx+X9i+Aak/u1cfuKhdZ9IEcaVuniPTWprpPMdQYhpsE9kvKO3CFrYCUn5yBWveoOpbxJflIsutrcp8JHDCvEFtKCABlILh5gevtIwSaxLtOoy6HUWjXbYCEJ4U3yHglKccRy4SSRjOTzGe/IWZPSBYykFVu1IkkbjyauO3/AMFffL+xfANSf3auP3FVKRY9UOhJaha9ZWDuoXqCSoZBIPundkDuzUlp0arsCnS7YNW3QOAJQJ1zgucCefY4N8k792B2UF2tlxh3i3RbtbnuuiTWG5LDnCU8ba0hSVYIBGQQcEA1s1C6JtsyzaMsNnuDYblQbZFjPoCgoJcQ0lKhkbHcHcVNUClKUClKUClKUClKUClKUClKUClKUClKUClKUCqTqe62ex60hT768hmM5apDCFqaLg6wutEDhSCeQO+KUoK55SWRBbLHSa3sghYdsHGFKyTkYSMDcbbnbnWBOo4oW4D0qxeDAKD5N5OeI5z5vLGB8+/ZgqUEhDvlnucrTlsi6hbvFxau/hDrybf4Keq6p3bHCBtlI55POuoUpQKUpQKUpQKUpQKUpQKUpQKUpQKUpQKUpQKUpQf/2Q==" host="kod.cuc.edu.cn" modified="2025-06-07T10:45:31.511Z" agent="Mozilla/5.0 (Windows NT 10.0; Win64; x64) AppleWebKit/537.36 (KHTML, like Gecko) Chrome/137.0.0.0 Safari/537.36 Edg/137.0.0.0" etag="eSFRrkEopaKZYUj9_i5I" version="22.0.8">
  <diagram name="第 1 页" id="iisNihImLOgB6vofr5ly">
    <mxGraphModel dx="2390" dy="1164" grid="1" gridSize="10" guides="1" tooltips="1" connect="1" arrows="1" fold="1" page="1" pageScale="1" pageWidth="827" pageHeight="1169" math="1" shadow="0">
      <root>
        <mxCell id="0" />
        <mxCell id="1" parent="0" />
        <mxCell id="l6W-9mCStEPPLwIKauOo-55" value="DeepSeek AI Training" style="rounded=1;absoluteArcSize=1;arcSize=14;whiteSpace=wrap;strokeWidth=2;" vertex="1" parent="1">
          <mxGeometry x="908" y="123" width="164" height="34" as="geometry" />
        </mxCell>
        <mxCell id="l6W-9mCStEPPLwIKauOo-113" style="edgeStyle=orthogonalEdgeStyle;rounded=0;orthogonalLoop=1;jettySize=auto;html=1;entryX=0.5;entryY=0;entryDx=0;entryDy=0;" edge="1" parent="1" source="l6W-9mCStEPPLwIKauOo-56" target="l6W-9mCStEPPLwIKauOo-67">
          <mxGeometry relative="1" as="geometry" />
        </mxCell>
        <mxCell id="l6W-9mCStEPPLwIKauOo-56" value="Personalized Travel Assistant" style="rhombus;strokeWidth=2;whiteSpace=wrap;" vertex="1" parent="1">
          <mxGeometry x="890" y="200" width="200" height="180" as="geometry" />
        </mxCell>
        <mxCell id="l6W-9mCStEPPLwIKauOo-98" style="edgeStyle=orthogonalEdgeStyle;rounded=0;orthogonalLoop=1;jettySize=auto;html=1;" edge="1" parent="1" source="l6W-9mCStEPPLwIKauOo-59" target="l6W-9mCStEPPLwIKauOo-61">
          <mxGeometry relative="1" as="geometry" />
        </mxCell>
        <mxCell id="l6W-9mCStEPPLwIKauOo-108" style="edgeStyle=orthogonalEdgeStyle;rounded=0;orthogonalLoop=1;jettySize=auto;html=1;entryX=0.5;entryY=0;entryDx=0;entryDy=0;" edge="1" parent="1" source="l6W-9mCStEPPLwIKauOo-59" target="l6W-9mCStEPPLwIKauOo-60">
          <mxGeometry relative="1" as="geometry" />
        </mxCell>
        <mxCell id="l6W-9mCStEPPLwIKauOo-109" style="edgeStyle=orthogonalEdgeStyle;rounded=0;orthogonalLoop=1;jettySize=auto;html=1;entryX=0.5;entryY=0;entryDx=0;entryDy=0;" edge="1" parent="1" source="l6W-9mCStEPPLwIKauOo-59" target="l6W-9mCStEPPLwIKauOo-62">
          <mxGeometry relative="1" as="geometry" />
        </mxCell>
        <mxCell id="l6W-9mCStEPPLwIKauOo-59" value="Targeted Recommendations" style="whiteSpace=wrap;strokeWidth=2;" vertex="1" parent="1">
          <mxGeometry x="520" y="490" width="214" height="30" as="geometry" />
        </mxCell>
        <mxCell id="l6W-9mCStEPPLwIKauOo-60" value="Budget-Conscious Routes" style="whiteSpace=wrap;strokeWidth=2;" vertex="1" parent="1">
          <mxGeometry x="353.5" y="580" width="193" height="34" as="geometry" />
        </mxCell>
        <mxCell id="l6W-9mCStEPPLwIKauOo-61" value="Time-Efficient Plans" style="whiteSpace=wrap;strokeWidth=2;" vertex="1" parent="1">
          <mxGeometry x="546.5" y="634" width="161" height="34" as="geometry" />
        </mxCell>
        <mxCell id="l6W-9mCStEPPLwIKauOo-62" value="Group-Specific Itineraries" style="whiteSpace=wrap;strokeWidth=2;" vertex="1" parent="1">
          <mxGeometry x="670" y="567" width="199" height="34" as="geometry" />
        </mxCell>
        <mxCell id="l6W-9mCStEPPLwIKauOo-92" value="" style="edgeStyle=orthogonalEdgeStyle;rounded=0;orthogonalLoop=1;jettySize=auto;html=1;" edge="1" parent="1" source="l6W-9mCStEPPLwIKauOo-63" target="l6W-9mCStEPPLwIKauOo-65">
          <mxGeometry relative="1" as="geometry" />
        </mxCell>
        <mxCell id="l6W-9mCStEPPLwIKauOo-105" style="edgeStyle=orthogonalEdgeStyle;rounded=0;orthogonalLoop=1;jettySize=auto;html=1;entryX=0.5;entryY=0;entryDx=0;entryDy=0;" edge="1" parent="1" source="l6W-9mCStEPPLwIKauOo-63" target="l6W-9mCStEPPLwIKauOo-66">
          <mxGeometry relative="1" as="geometry" />
        </mxCell>
        <mxCell id="l6W-9mCStEPPLwIKauOo-63" value="Immersive Tech Integration" style="whiteSpace=wrap;strokeWidth=2;" vertex="1" parent="1">
          <mxGeometry x="1444" y="480" width="210" height="40" as="geometry" />
        </mxCell>
        <mxCell id="l6W-9mCStEPPLwIKauOo-64" value="AR Virtual Guides" style="whiteSpace=wrap;strokeWidth=2;" vertex="1" parent="1">
          <mxGeometry x="1330" y="560" width="141" height="34" as="geometry" />
        </mxCell>
        <mxCell id="l6W-9mCStEPPLwIKauOo-65" value="Smart Screen Displays" style="whiteSpace=wrap;strokeWidth=2;" vertex="1" parent="1">
          <mxGeometry x="1463" y="634" width="172" height="34" as="geometry" />
        </mxCell>
        <mxCell id="l6W-9mCStEPPLwIKauOo-110" style="edgeStyle=orthogonalEdgeStyle;rounded=0;orthogonalLoop=1;jettySize=auto;html=1;entryX=0.5;entryY=0;entryDx=0;entryDy=0;" edge="1" parent="1" source="l6W-9mCStEPPLwIKauOo-67" target="l6W-9mCStEPPLwIKauOo-68">
          <mxGeometry relative="1" as="geometry" />
        </mxCell>
        <mxCell id="l6W-9mCStEPPLwIKauOo-111" style="edgeStyle=orthogonalEdgeStyle;rounded=0;orthogonalLoop=1;jettySize=auto;html=1;entryX=0.5;entryY=0;entryDx=0;entryDy=0;" edge="1" parent="1" source="l6W-9mCStEPPLwIKauOo-67" target="l6W-9mCStEPPLwIKauOo-70">
          <mxGeometry relative="1" as="geometry" />
        </mxCell>
        <mxCell id="l6W-9mCStEPPLwIKauOo-67" value="Cultural Deep Analysis" style="whiteSpace=wrap;strokeWidth=2;" vertex="1" parent="1">
          <mxGeometry x="950" y="490" width="175" height="34" as="geometry" />
        </mxCell>
        <mxCell id="l6W-9mCStEPPLwIKauOo-68" value="IP Development" style="whiteSpace=wrap;strokeWidth=2;" vertex="1" parent="1">
          <mxGeometry x="973.5" y="680" width="128" height="34" as="geometry" />
        </mxCell>
        <mxCell id="l6W-9mCStEPPLwIKauOo-69" value="Inheritance of cultural heritage" style="whiteSpace=wrap;strokeWidth=2;" vertex="1" parent="1">
          <mxGeometry x="1101.5" y="620" width="183" height="34" as="geometry" />
        </mxCell>
        <mxCell id="l6W-9mCStEPPLwIKauOo-70" value="Tourism Product Creation" style="whiteSpace=wrap;strokeWidth=2;" vertex="1" parent="1">
          <mxGeometry x="810" y="620" width="197" height="34" as="geometry" />
        </mxCell>
        <mxCell id="l6W-9mCStEPPLwIKauOo-72" value="" style="curved=1;startArrow=none;endArrow=block;exitX=0.4971774961890244;exitY=1;entryX=0.5001455269607843;entryY=0;rounded=0;" edge="1" parent="1" source="l6W-9mCStEPPLwIKauOo-55" target="l6W-9mCStEPPLwIKauOo-56">
          <mxGeometry relative="1" as="geometry">
            <Array as="points" />
          </mxGeometry>
        </mxCell>
        <mxCell id="l6W-9mCStEPPLwIKauOo-76" value="" style="curved=1;startArrow=none;endArrow=block;exitX=0.4267426353008619;exitY=0.9987132352941176;entryX=0.4988226489485981;entryY=-0.009650735294117647;rounded=0;" edge="1" parent="1" source="l6W-9mCStEPPLwIKauOo-56" target="l6W-9mCStEPPLwIKauOo-59">
          <mxGeometry relative="1" as="geometry">
            <Array as="points">
              <mxPoint x="680" y="370" />
            </Array>
          </mxGeometry>
        </mxCell>
        <mxCell id="l6W-9mCStEPPLwIKauOo-80" value="" style="curved=1;startArrow=none;endArrow=block;exitX=0.65;exitY=0.906;entryX=0.49868861607142856;entryY=-0.009650735294117647;rounded=0;exitDx=0;exitDy=0;exitPerimeter=0;" edge="1" parent="1" source="l6W-9mCStEPPLwIKauOo-56" target="l6W-9mCStEPPLwIKauOo-63">
          <mxGeometry relative="1" as="geometry">
            <Array as="points">
              <mxPoint x="1240" y="380" />
            </Array>
          </mxGeometry>
        </mxCell>
        <mxCell id="l6W-9mCStEPPLwIKauOo-66" value="Interactive Websites" style="whiteSpace=wrap;strokeWidth=2;" vertex="1" parent="1">
          <mxGeometry x="1680" y="560" width="162" height="34" as="geometry" />
        </mxCell>
        <mxCell id="l6W-9mCStEPPLwIKauOo-107" value="" style="endArrow=classic;html=1;rounded=0;exitX=0;exitY=0.5;exitDx=0;exitDy=0;entryX=0.25;entryY=0;entryDx=0;entryDy=0;" edge="1" parent="1" source="l6W-9mCStEPPLwIKauOo-63" target="l6W-9mCStEPPLwIKauOo-64">
          <mxGeometry width="50" height="50" relative="1" as="geometry">
            <mxPoint x="1310" y="540" as="sourcePoint" />
            <mxPoint x="1360" y="490" as="targetPoint" />
            <Array as="points">
              <mxPoint x="1365" y="500" />
            </Array>
          </mxGeometry>
        </mxCell>
        <mxCell id="l6W-9mCStEPPLwIKauOo-112" style="edgeStyle=orthogonalEdgeStyle;rounded=0;orthogonalLoop=1;jettySize=auto;html=1;entryX=0.445;entryY=0.092;entryDx=0;entryDy=0;entryPerimeter=0;" edge="1" parent="1" source="l6W-9mCStEPPLwIKauOo-67" target="l6W-9mCStEPPLwIKauOo-69">
          <mxGeometry relative="1" as="geometry" />
        </mxCell>
      </root>
    </mxGraphModel>
  </diagram>
</mxfile>
